<svg viewBox="0 0 1024 1024" fill="none" xmlns="http://www.w3.org/2000/svg">
  <path d="M534 183c3.501.449 6.299.111 9.762-.438 56.491-10.858 110.795 21.083 167.19 10.99 35.181-6.371 70.252-13.5 103.864-25.978C833.3 160.592 851.735 153.548 870 146c-22.185-22.456-47.357-43.081-73.688-60.563C769.018 67.299 740.233 51.703 710 39 647.097 12.191 578.813-.33 510.563-.25c-67.211.056-136.757 12.94-198.336 40.344-42.162 19.173-83.885 41.298-119.664 71.156-16.08 13.749-31.589 27.828-46.563 42.75-2.817 2.694-5.513 5.353-7 9h-2c-6.212 5.625-10.948 12.81-16.39 19.144-28.248 32.735-54.535 70.935-72.085 110.763C31.291 332.099 17.47 371.83 9 414-9.767 503.695-3.05 604.738 30.859 689.664c23.447 57.886 52.725 114.88 95.948 160.867l1.364 1.448c16.561 17.587 32.809 34.84 51.529 50.314 54.381 44.572 117.124 81.37 185.206 100.557 39.485 10.99 78.974 18.66 120.094 21.15 0-13.69-15.069-30.848-25.687-36.625C415.12 964.36 377.638 931.31 341 898c-6.316-6.131-14.557-15.208-24.375-12.062-7.62 3.778-9.092 10.367-11.625 18.062-9.493-14.24-14.523-30.298-16.931-47.146-1.721-12.368-2.206-25.242-9.185-36.039-11.018-16.452-19.806-34.374-28.967-51.886-30.179-57.381-49.873-124.02-54.597-188.261-3.616-50.625-.068-102.211 15.168-150.84C230.055 368.303 260.309 312.636 305 266v-2h2c3.089-6.979 11.83-12.734 17.246-18.085 3.506-3.44 11.003-10.538 12.754-14.915h2c30.762-28.141 43.969-79.73 36.68-119.621C371.649 91.35 365.14 72.795 355 55c41.83-4.408 67.021 28.144 101 44v2a58 58 0 0 0 7 4v2c22.289 19.027 43.856 40.456 61.487 63.984 3.003 4.119 5.83 8.469 9.513 12.016" fill="#1f2328"/>
  <path d="M1022 108c-26.4 16.83-53.729 32.182-80.062 49.063C929.263 165.181 915.32 171.345 903 180a246 246 0 0 0 10.063 12.875c48.474 58.813 79.789 130.283 98.307 203.551 18.19 72.939 16.18 150.952 1.53 224.031-7.2 35.026-19.058 67.989-32.552 100.965-25.051 60.263-65.532 112.183-110.961 158.226C815.608 933.979 743.579 979.188 670 1000c-13.801 4.25-27.641 9.15-42 11-2.454-6.32-4.416-12.779-6.281-19.29C605.81 934.559 645.634 805.372 697 771c-45.457 6.019-83.252 44.607-113.063 77.562C580.537 852.277 563.619 876 555 876v2c-17.275 16.087-39.507 31.484-64 29-34.731-7.06-52.97-44.377-63-75-1.956-5.71-5.1-11.963-3-18 17.915-10.749 45.902-5.28 65-1-8.017-13.038-18.086-23.412-28.402-34.508C450.157 766.465 435.884 757.859 422 749c-4.029-2.021-8.152-4.112-10.096-8.443C397.869 680.108 412.062 596.793 447 546c8.241-12.01 24.018-34.792 40.146-36.186 35.201-.477 68.849 27.519 98.541 43.561C605.061 563.934 625.736 580.146 648 583c-1.828-16.637-8.22-29.731-18-43-7.099-9.777-15.143-18.648-23.32-27.516C586.478 491.256 560.823 477.703 533 470c3.352-3.687 7.918-5.572 12.313-7.688C587.971 441.358 629.379 413.37 660 377c14.604-17.052 27.845-35.523 43-52h2l.695-1.656c8.779-15.771 24.456-26.747 38.321-37.734C768.019 266.722 795.402 252.397 819 233c-6.781-1.185-13.232-.286-19.875 1.118-35.738 7.835-68.628 25.131-97.523 47.167C690.766 289.516 675.28 302.1 661 300c-6.291-13.776 36.027-40.869 43.281-46.578 50.352-39.171 112.325-61.483 170.407-86.797 46.993-20.453 94.437-39.855 141.992-58.967C1019 107 1019 107 1022 108" fill="#1f2328"/>  
</svg>
