<svg viewBox="0 0 159 47" fill="none" xmlns="http://www.w3.org/2000/svg"><path d="M132.057 45.504v-33.92h4.928l.192 8.64-.64-.576q.64-3.008 2.24-4.928 1.6-1.984 3.84-2.944 2.304-.96 4.928-.96 3.904 0 6.4 1.728 2.56 1.729 3.776 4.672 1.28 2.88 1.28 6.464v21.824h-5.376V25.216q0-3.136-.768-5.248-.703-2.176-2.304-3.264-1.6-1.152-4.16-1.152-3.904 0-6.464 2.496-2.496 2.431-2.496 7.168v20.288z" fill="#1f2328"/><path fill-rule="evenodd" clip-rule="evenodd" d="M118.367 11.584v33.92h5.376v-33.92z" fill="#1f2328"/><path d="M118.367 6.272V0h5.632v6.272z" fill="#6366f1"/><path d="M111.021 45.504q-2.944 0-4.801-1.536-1.855-1.536-1.855-4.864V.064h5.376v38.592q0 1.024.512 1.6.576.512 1.6.512h2.944v4.736zm-26.409 0v-33.92h4.736l.256 8.576-.512-.192q.64-4.351 2.752-6.336 2.175-2.048 5.76-2.048h3.328v5.12h-3.264q-2.56 0-4.288.96-1.665.896-2.56 2.752-.832 1.792-.832 4.608v20.48zm-23.288.768q-5.248 0-8.384-2.432-3.072-2.432-3.072-6.784t2.56-6.848 8.128-3.52l12.032-2.24q0-4.288-2.048-6.4-1.984-2.112-6.016-2.112-3.52 0-5.568 1.6-2.048 1.536-2.816 4.48l-5.696-.448q.96-4.8 4.608-7.744 3.712-3.008 9.472-3.008 6.528 0 9.984 3.712 3.456 3.648 3.456 10.112v14.016q0 1.152.384 1.664.448.448 1.408.448H81.1v4.736q-.255.064-.832.064-.577.064-1.216.064-2.304 0-3.776-.704-1.408-.768-2.048-2.304-.64-1.6-.64-4.16l.64.128q-.448 2.175-2.176 3.968-1.728 1.729-4.288 2.752-2.56.96-5.44.96m.512-4.736q3.391 0 5.76-1.28 2.432-1.344 3.712-3.584 1.28-2.304 1.28-5.12V29.12L61.58 31.168q-3.456.64-4.8 1.984-1.28 1.28-1.28 3.392 0 2.368 1.664 3.712 1.729 1.28 4.672 1.28M0 45.504V.064h7.68l14.528 39.424L36.672.064h7.68v45.44h-5.504v-35.2l-12.992 35.2h-7.36l-12.992-35.2v35.2z" fill="#1f2328"/></svg>